<?xml version="1.0" encoding="UTF-8"?>
<svg id="Layer_1" data-name="Layer 1" xmlns="http://www.w3.org/2000/svg" viewBox="0 0 166 166">
  <defs>
    <style>
      .cls-1 {
        fill: #fff;
        fill-rule: evenodd;
        stroke-width: 0px;
      }
    </style>
  </defs>
  <g id="Layer_1-2" data-name="Layer 1-2">
    <path class="cls-1" d="M-.14,106.86v59.14h8.2c0-3.13.48-5.84,1-9.03,3.56-22.72,31.92-38.93,57.79-27.95,11.97,5.08,20.85,16.15,22.71,28.03.53,3.36.21,5.71.3,8.95h75.99v-54.94h-9.14c-.46,4.29-.08,6.65-1.84,13.26-4.07,10.66-14.25,18.63-27.38,19.75-19.15,1.63-34.2-11.52-35.28-26.98-.42-6.05-.08-22.14-.08-29.28V0H24.98v11.17c9.69.39,16.61,1.72,24.03,5.22,29.52,13.91,37.85,47.32,18.68,70.89-8.72,10.73-22.43,18.2-38,19.39-5.72.44-23,.2-29.84.2h0Z"/>
  </g>
</svg>